<svg width="123" height="31" viewBox="0 0 123 31" fill="none" xmlns="http://www.w3.org/2000/svg">
<path d="M1.375 14V2.5625H3.75781C4.59635 2.5625 5.21354 2.60677 5.60938 2.69531C6.01042 2.77865 6.35417 2.92448 6.64062 3.13281C7.00521 3.40365 7.28646 3.7526 7.48438 4.17969C7.6875 4.60156 7.78906 5.0651 7.78906 5.57031C7.78906 6.17448 7.64323 6.67969 7.35156 7.08594C7.0651 7.49219 6.64583 7.77604 6.09375 7.9375C6.77083 8.04167 7.30469 8.34635 7.69531 8.85156C8.09115 9.35156 8.28906 9.98438 8.28906 10.75C8.28906 11.2083 8.20573 11.6458 8.03906 12.0625C7.8724 12.4792 7.64062 12.8359 7.34375 13.1328C7.02083 13.4505 6.6224 13.6745 6.14844 13.8047C5.67448 13.9349 4.8776 14 3.75781 14H1.375ZM2.70312 8.64062V12.8125H3.75781C4.48177 12.8125 5.0026 12.7839 5.32031 12.7266C5.64323 12.6693 5.90104 12.5703 6.09375 12.4297C6.32812 12.263 6.51302 12.0312 6.64844 11.7344C6.78385 11.4375 6.85156 11.1094 6.85156 10.75C6.85156 10.3333 6.77083 9.97135 6.60938 9.66406C6.44792 9.35677 6.21354 9.11719 5.90625 8.94531C5.72396 8.83594 5.51302 8.75781 5.27344 8.71094C5.03385 8.66406 4.66146 8.64062 4.15625 8.64062H3.75781H2.70312ZM2.70312 3.74219V7.57031H3.75781C4.72656 7.57031 5.40885 7.42969 5.80469 7.14844C6.20052 6.86719 6.39844 6.39323 6.39844 5.72656C6.39844 4.99219 6.21354 4.47917 5.84375 4.1875C5.47917 3.89062 4.78385 3.74219 3.75781 3.74219H2.70312ZM10.9688 10.4453C10.9688 11.2005 11.2214 11.8411 11.7266 12.3672C12.2318 12.888 12.8438 13.1484 13.5625 13.1484C14.276 13.1484 14.8828 12.888 15.3828 12.3672C15.8828 11.8411 16.1328 11.2005 16.1328 10.4453C16.1328 9.6901 15.8828 9.05208 15.3828 8.53125C14.8828 8.00521 14.276 7.74219 13.5625 7.74219C12.8385 7.74219 12.224 8.00521 11.7188 8.53125C11.2188 9.05208 10.9688 9.6901 10.9688 10.4453ZM9.67188 10.4453C9.67188 9.91927 9.76823 9.42448 9.96094 8.96094C10.1536 8.49219 10.4349 8.07552 10.8047 7.71094C11.1745 7.34635 11.5938 7.07031 12.0625 6.88281C12.5312 6.6901 13.0312 6.59375 13.5625 6.59375C14.0833 6.59375 14.5755 6.6901 15.0391 6.88281C15.5078 7.07552 15.9323 7.35677 16.3125 7.72656C16.6823 8.08594 16.9635 8.5 17.1562 8.96875C17.349 9.43229 17.4453 9.92448 17.4453 10.4453C17.4453 10.9661 17.349 11.4583 17.1562 11.9219C16.9635 12.3802 16.6823 12.7891 16.3125 13.1484C15.9323 13.5234 15.5052 13.8099 15.0312 14.0078C14.5625 14.2057 14.0729 14.3047 13.5625 14.3047C13.0365 14.3047 12.5365 14.2057 12.0625 14.0078C11.5938 13.8151 11.1745 13.5365 10.8047 13.1719C10.4349 12.7969 10.1536 12.3802 9.96094 11.9219C9.76823 11.4635 9.67188 10.9714 9.67188 10.4453ZM19.4219 14V1.89062H20.6719V14H19.4219ZM22.4766 12.7969L23.5234 12.0938C23.7214 12.474 23.9714 12.7604 24.2734 12.9531C24.5755 13.1406 24.9323 13.2344 25.3438 13.2344C25.7448 13.2344 26.0677 13.1354 26.3125 12.9375C26.5625 12.7396 26.6875 12.4792 26.6875 12.1562C26.6875 11.9062 26.6016 11.6979 26.4297 11.5312C26.263 11.3646 25.974 11.2109 25.5625 11.0703C25.5208 11.0547 25.4531 11.0312 25.3594 11C23.6198 10.401 22.75 9.65104 22.75 8.75C22.75 8.11458 22.9844 7.59635 23.4531 7.19531C23.9219 6.79427 24.5312 6.59375 25.2812 6.59375C25.901 6.59375 26.4323 6.71875 26.875 6.96875C27.3177 7.21354 27.6354 7.5625 27.8281 8.01562L26.8359 8.625C26.6901 8.29688 26.474 8.04427 26.1875 7.86719C25.9062 7.6901 25.5781 7.60156 25.2031 7.60156C24.8438 7.60156 24.5495 7.70312 24.3203 7.90625C24.0964 8.10417 23.9844 8.35938 23.9844 8.67188C23.9844 9.10938 24.4583 9.47656 25.4062 9.77344C25.5833 9.83073 25.724 9.875 25.8281 9.90625C26.6042 10.1562 27.1432 10.4427 27.4453 10.7656C27.7526 11.0833 27.9062 11.5052 27.9062 12.0312C27.9062 12.7083 27.6641 13.2578 27.1797 13.6797C26.7005 14.0964 26.0729 14.3047 25.2969 14.3047C24.6302 14.3047 24.0625 14.1797 23.5938 13.9297C23.1302 13.6797 22.7578 13.3021 22.4766 12.7969ZM35.2188 10.4922C35.2188 9.6849 34.9974 9.03646 34.5547 8.54688C34.1172 8.05208 33.5443 7.80469 32.8359 7.80469C32.1016 7.80469 31.5286 8.03125 31.1172 8.48438C30.7057 8.9375 30.5 9.57031 30.5 10.3828C30.5 11.2474 30.7057 11.9141 31.1172 12.3828C31.5339 12.8516 32.1224 13.0859 32.8828 13.0859C33.612 13.0859 34.1823 12.8594 34.5938 12.4062C35.0104 11.9479 35.2188 11.3099 35.2188 10.4922ZM36.4062 6.85156V14H35.2188V12.7031C34.9323 13.224 34.5651 13.6224 34.1172 13.8984C33.6745 14.1693 33.1771 14.3047 32.625 14.3047C31.599 14.3047 30.7708 13.9531 30.1406 13.25C29.5156 12.5417 29.2031 11.6068 29.2031 10.4453C29.2031 9.26823 29.5078 8.33333 30.1172 7.64062C30.7266 6.94271 31.5417 6.59375 32.5625 6.59375C33.1615 6.59375 33.6797 6.72917 34.1172 7C34.5599 7.26562 34.9167 7.66406 35.1875 8.19531V6.85156H36.4062ZM49.0469 10.4609C49.0469 9.66406 48.8255 9.02344 48.3828 8.53906C47.9401 8.04948 47.3568 7.80469 46.6328 7.80469C45.9089 7.80469 45.3438 8.02604 44.9375 8.46875C44.5312 8.91146 44.3281 9.52344 44.3281 10.3047C44.3281 11.1849 44.5339 11.875 44.9453 12.375C45.3568 12.8698 45.9245 13.1172 46.6484 13.1172C47.3984 13.1172 47.9844 12.8828 48.4062 12.4141C48.8333 11.9453 49.0469 11.2943 49.0469 10.4609ZM50.2344 1.89062V14H49.0469V12.7031C48.7656 13.2188 48.401 13.6146 47.9531 13.8906C47.5052 14.1667 47.0052 14.3047 46.4531 14.3047C45.4271 14.3047 44.599 13.9531 43.9688 13.25C43.3438 12.5417 43.0312 11.6068 43.0312 10.4453C43.0312 9.27344 43.3385 8.33854 43.9531 7.64062C44.5677 6.94271 45.3854 6.59375 46.4062 6.59375C47 6.59375 47.5156 6.72917 47.9531 7C48.3906 7.26562 48.7448 7.66406 49.0156 8.19531V1.89062H50.2344ZM57.8047 9.61719C57.763 8.98698 57.5521 8.5026 57.1719 8.16406C56.7969 7.82031 56.2812 7.64844 55.625 7.64844C55.0312 7.64844 54.5365 7.82812 54.1406 8.1875C53.7448 8.54167 53.5156 9.01823 53.4531 9.61719H57.8047ZM59.1172 10.6094H53.4531V10.7188C53.4531 11.4844 53.6719 12.1042 54.1094 12.5781C54.5469 13.0469 55.1172 13.2812 55.8203 13.2812C56.2995 13.2812 56.7318 13.1536 57.1172 12.8984C57.5026 12.638 57.8438 12.2474 58.1406 11.7266L59.0703 12.3516C58.7109 12.9974 58.2526 13.4844 57.6953 13.8125C57.138 14.1406 56.4922 14.3047 55.7578 14.3047C54.6693 14.3047 53.7891 13.9453 53.1172 13.2266C52.4453 12.5078 52.1094 11.5651 52.1094 10.3984C52.1094 9.27865 52.4427 8.36198 53.1094 7.64844C53.776 6.9349 54.6328 6.57812 55.6797 6.57812C56.737 6.57812 57.5729 6.91667 58.1875 7.59375C58.8073 8.27083 59.1172 9.19531 59.1172 10.3672V10.6094ZM1.4375 20.8594H0.125V19.8516H1.4375V16.9688H2.6875V19.8516H4V20.8594H2.6875V27H1.4375V20.8594ZM5.40625 27V19.8516H6.49219V21.3359C6.82031 20.7161 7.16927 20.2734 7.53906 20.0078C7.90885 19.7422 8.35938 19.6094 8.89062 19.6094C9.03646 19.6094 9.17708 19.6224 9.3125 19.6484C9.44792 19.6693 9.58333 19.7031 9.71875 19.75L9.3125 20.8516C9.17188 20.8047 9.03906 20.7708 8.91406 20.75C8.78906 20.724 8.66927 20.7109 8.55469 20.7109C7.90885 20.7109 7.42448 20.9453 7.10156 21.4141C6.77865 21.8776 6.61719 22.5781 6.61719 23.5156V27H5.40625ZM16.4844 23.4922C16.4844 22.6849 16.263 22.0365 15.8203 21.5469C15.3828 21.0521 14.8099 20.8047 14.1016 20.8047C13.3672 20.8047 12.7943 21.0312 12.3828 21.4844C11.9714 21.9375 11.7656 22.5703 11.7656 23.3828C11.7656 24.2474 11.9714 24.9141 12.3828 25.3828C12.7995 25.8516 13.388 26.0859 14.1484 26.0859C14.8776 26.0859 15.4479 25.8594 15.8594 25.4062C16.276 24.9479 16.4844 24.3099 16.4844 23.4922ZM17.6719 19.8516V27H16.4844V25.7031C16.1979 26.224 15.8307 26.6224 15.3828 26.8984C14.9401 27.1693 14.4427 27.3047 13.8906 27.3047C12.8646 27.3047 12.0365 26.9531 11.4062 26.25C10.7812 25.5417 10.4688 24.6068 10.4688 23.4453C10.4688 22.2682 10.7734 21.3333 11.3828 20.6406C11.9922 19.9427 12.8073 19.5938 13.8281 19.5938C14.4271 19.5938 14.9453 19.7292 15.3828 20C15.8255 20.2656 16.1823 20.6641 16.4531 21.1953V19.8516H17.6719ZM21.2891 23.4609C21.2891 24.2943 21.5026 24.9453 21.9297 25.4141C22.3568 25.8828 22.9427 26.1172 23.6875 26.1172C24.4167 26.1172 24.987 25.8698 25.3984 25.375C25.8151 24.875 26.0234 24.1849 26.0234 23.3047C26.0234 22.5234 25.8203 21.9115 25.4141 21.4688C25.0078 21.026 24.4453 20.8047 23.7266 20.8047C22.9974 20.8047 22.4089 21.0495 21.9609 21.5391C21.513 22.0234 21.2891 22.6641 21.2891 23.4609ZM20.125 14.8906H21.3359V21.1953C21.612 20.6641 21.9688 20.2656 22.4062 20C22.8438 19.7292 23.3568 19.5938 23.9453 19.5938C24.9714 19.5938 25.7891 19.9427 26.3984 20.6406C27.013 21.3385 27.3203 22.2734 27.3203 23.4453C27.3203 24.6068 27.0078 25.5417 26.3828 26.25C25.7578 26.9531 24.9297 27.3047 23.8984 27.3047C23.3464 27.3047 22.8438 27.1667 22.3906 26.8906C21.9375 26.6094 21.5703 26.2135 21.2891 25.7031V27H20.125V14.8906ZM34.75 23.4922C34.75 22.6849 34.5286 22.0365 34.0859 21.5469C33.6484 21.0521 33.0755 20.8047 32.3672 20.8047C31.6328 20.8047 31.0599 21.0312 30.6484 21.4844C30.237 21.9375 30.0312 22.5703 30.0312 23.3828C30.0312 24.2474 30.237 24.9141 30.6484 25.3828C31.0651 25.8516 31.6536 26.0859 32.4141 26.0859C33.1432 26.0859 33.7135 25.8594 34.125 25.4062C34.5417 24.9479 34.75 24.3099 34.75 23.4922ZM35.9375 19.8516V27H34.75V25.7031C34.4635 26.224 34.0964 26.6224 33.6484 26.8984C33.2057 27.1693 32.7083 27.3047 32.1562 27.3047C31.1302 27.3047 30.3021 26.9531 29.6719 26.25C29.0469 25.5417 28.7344 24.6068 28.7344 23.4453C28.7344 22.2682 29.0391 21.3333 29.6484 20.6406C30.2578 19.9427 31.0729 19.5938 32.0938 19.5938C32.6927 19.5938 33.2109 19.7292 33.6484 20C34.0911 20.2656 34.4479 20.6641 34.7188 21.1953V19.8516H35.9375ZM38.1641 16.4062C38.1641 16.1615 38.25 15.9531 38.4219 15.7812C38.599 15.6042 38.8125 15.5156 39.0625 15.5156C39.3073 15.5156 39.5156 15.6042 39.6875 15.7812C39.8646 15.9583 39.9531 16.1719 39.9531 16.4219C39.9531 16.6667 39.8672 16.875 39.6953 17.0469C39.5234 17.2188 39.3125 17.3047 39.0625 17.3047C38.8125 17.3047 38.599 17.2188 38.4219 17.0469C38.25 16.875 38.1641 16.6615 38.1641 16.4062ZM38.4531 30.4844V19.8516H39.6875V30.4844H38.4531ZM42.9844 23.4453C42.9844 24.2005 43.237 24.8411 43.7422 25.3672C44.2474 25.888 44.8594 26.1484 45.5781 26.1484C46.2917 26.1484 46.8984 25.888 47.3984 25.3672C47.8984 24.8411 48.1484 24.2005 48.1484 23.4453C48.1484 22.6901 47.8984 22.0521 47.3984 21.5312C46.8984 21.0052 46.2917 20.7422 45.5781 20.7422C44.8542 20.7422 44.2396 21.0052 43.7344 21.5312C43.2344 22.0521 42.9844 22.6901 42.9844 23.4453ZM41.6875 23.4453C41.6875 22.9193 41.7839 22.4245 41.9766 21.9609C42.1693 21.4922 42.4505 21.0755 42.8203 20.7109C43.1901 20.3464 43.6094 20.0703 44.0781 19.8828C44.5469 19.6901 45.0469 19.5938 45.5781 19.5938C46.099 19.5938 46.5911 19.6901 47.0547 19.8828C47.5234 20.0755 47.9479 20.3568 48.3281 20.7266C48.6979 21.0859 48.9792 21.5 49.1719 21.9688C49.3646 22.4323 49.4609 22.9245 49.4609 23.4453C49.4609 23.9661 49.3646 24.4583 49.1719 24.9219C48.9792 25.3802 48.6979 25.7891 48.3281 26.1484C47.9479 26.5234 47.5208 26.8099 47.0469 27.0078C46.5781 27.2057 46.0885 27.3047 45.5781 27.3047C45.0521 27.3047 44.5521 27.2057 44.0781 27.0078C43.6094 26.8151 43.1901 26.5365 42.8203 26.1719C42.4505 25.7969 42.1693 25.3802 41.9766 24.9219C41.7839 24.4635 41.6875 23.9714 41.6875 23.4453Z" fill="#18181B"/>
<path d="M83.6758 6.34375V17.0195C83.6758 19.3477 83.0625 21.0859 81.8359 22.2344C80.6094 23.3828 78.7617 23.957 76.293 23.957C73.7852 23.957 71.918 23.3828 70.6914 22.2344C69.4648 21.0859 68.8516 19.3477 68.8516 17.0195V6.34375H72.4961V16.4453C72.4961 17.8594 72.8086 18.9258 73.4336 19.6445C74.0586 20.3555 74.9922 20.7109 76.2344 20.7109C77.4844 20.7109 78.4297 20.3516 79.0703 19.6328C79.7109 18.9141 80.0312 17.8516 80.0312 16.4453V6.34375H83.6758ZM95.9453 16.9727L94.0234 11.4297C93.9688 11.2656 93.8984 10.9844 93.8125 10.5859C93.7266 10.1875 93.6367 9.69922 93.543 9.12109C93.4414 9.67578 93.3438 10.1758 93.25 10.6211C93.1562 11.0586 93.0859 11.3516 93.0391 11.5L91.1875 16.9727H95.9453ZM85.0234 23.5L91.5508 6.34375H95.7461L102.367 23.5H98.1953L96.8008 19.8555H90.1562L88.9609 23.5H85.0234ZM114.625 17.6875L115.891 19.1758C116.422 18.6289 116.828 17.9883 117.109 17.2539C117.398 16.5117 117.543 15.7461 117.543 14.957C117.543 13.332 117.031 11.9648 116.008 10.8555C114.984 9.74609 113.707 9.19141 112.176 9.19141C110.621 9.19141 109.332 9.74609 108.309 10.8555C107.285 11.957 106.773 13.3242 106.773 14.957C106.773 16.6055 107.273 17.9727 108.273 19.0586C109.281 20.1445 110.559 20.6875 112.105 20.6875C112.238 20.6875 112.422 20.6758 112.656 20.6523C112.898 20.6211 113.184 20.5781 113.512 20.5234L111.039 17.6875H114.625ZM121.223 25.4922H117.566L115.703 23.2891C114.859 23.5078 114.156 23.6641 113.594 23.7578C113.039 23.8594 112.543 23.9102 112.105 23.9102C110.926 23.9102 109.77 23.6797 108.637 23.2188C107.504 22.7578 106.516 22.1172 105.672 21.2969C104.805 20.4531 104.137 19.4844 103.668 18.3906C103.207 17.2891 102.977 16.1367 102.977 14.9336C102.977 13.7305 103.207 12.5859 103.668 11.5C104.129 10.4062 104.797 9.42969 105.672 8.57031C106.523 7.72656 107.508 7.08203 108.625 6.63672C109.75 6.18359 110.934 5.95703 112.176 5.95703C113.395 5.95703 114.562 6.18359 115.68 6.63672C116.797 7.08203 117.789 7.72656 118.656 8.57031C119.523 9.42188 120.188 10.3906 120.648 11.4766C121.109 12.5625 121.34 13.7148 121.34 14.9336C121.34 16.2773 121.062 17.5312 120.508 18.6953C119.953 19.8594 119.141 20.8945 118.07 21.8008L121.223 25.4922Z" fill="#18181B"/>
</svg>
