<svg width="123" height="30" viewBox="0 0 123 30" fill="none" xmlns="http://www.w3.org/2000/svg">
<path d="M1.375 13.5V2.0625H3.75781C4.59635 2.0625 5.21354 2.10677 5.60938 2.19531C6.01042 2.27865 6.35417 2.42448 6.64062 2.63281C7.00521 2.90365 7.28646 3.2526 7.48438 3.67969C7.6875 4.10156 7.78906 4.5651 7.78906 5.07031C7.78906 5.67448 7.64323 6.17969 7.35156 6.58594C7.0651 6.99219 6.64583 7.27604 6.09375 7.4375C6.77083 7.54167 7.30469 7.84635 7.69531 8.35156C8.09115 8.85156 8.28906 9.48438 8.28906 10.25C8.28906 10.7083 8.20573 11.1458 8.03906 11.5625C7.8724 11.9792 7.64062 12.3359 7.34375 12.6328C7.02083 12.9505 6.6224 13.1745 6.14844 13.3047C5.67448 13.4349 4.8776 13.5 3.75781 13.5H1.375ZM2.70312 8.14062V12.3125H3.75781C4.48177 12.3125 5.0026 12.2839 5.32031 12.2266C5.64323 12.1693 5.90104 12.0703 6.09375 11.9297C6.32812 11.763 6.51302 11.5312 6.64844 11.2344C6.78385 10.9375 6.85156 10.6094 6.85156 10.25C6.85156 9.83333 6.77083 9.47135 6.60938 9.16406C6.44792 8.85677 6.21354 8.61719 5.90625 8.44531C5.72396 8.33594 5.51302 8.25781 5.27344 8.21094C5.03385 8.16406 4.66146 8.14062 4.15625 8.14062H3.75781H2.70312ZM2.70312 3.24219V7.07031H3.75781C4.72656 7.07031 5.40885 6.92969 5.80469 6.64844C6.20052 6.36719 6.39844 5.89323 6.39844 5.22656C6.39844 4.49219 6.21354 3.97917 5.84375 3.6875C5.47917 3.39062 4.78385 3.24219 3.75781 3.24219H2.70312ZM10.9688 9.94531C10.9688 10.7005 11.2214 11.3411 11.7266 11.8672C12.2318 12.388 12.8438 12.6484 13.5625 12.6484C14.276 12.6484 14.8828 12.388 15.3828 11.8672C15.8828 11.3411 16.1328 10.7005 16.1328 9.94531C16.1328 9.1901 15.8828 8.55208 15.3828 8.03125C14.8828 7.50521 14.276 7.24219 13.5625 7.24219C12.8385 7.24219 12.224 7.50521 11.7188 8.03125C11.2188 8.55208 10.9688 9.1901 10.9688 9.94531ZM9.67188 9.94531C9.67188 9.41927 9.76823 8.92448 9.96094 8.46094C10.1536 7.99219 10.4349 7.57552 10.8047 7.21094C11.1745 6.84635 11.5938 6.57031 12.0625 6.38281C12.5312 6.1901 13.0312 6.09375 13.5625 6.09375C14.0833 6.09375 14.5755 6.1901 15.0391 6.38281C15.5078 6.57552 15.9323 6.85677 16.3125 7.22656C16.6823 7.58594 16.9635 8 17.1562 8.46875C17.349 8.93229 17.4453 9.42448 17.4453 9.94531C17.4453 10.4661 17.349 10.9583 17.1562 11.4219C16.9635 11.8802 16.6823 12.2891 16.3125 12.6484C15.9323 13.0234 15.5052 13.3099 15.0312 13.5078C14.5625 13.7057 14.0729 13.8047 13.5625 13.8047C13.0365 13.8047 12.5365 13.7057 12.0625 13.5078C11.5938 13.3151 11.1745 13.0365 10.8047 12.6719C10.4349 12.2969 10.1536 11.8802 9.96094 11.4219C9.76823 10.9635 9.67188 10.4714 9.67188 9.94531ZM19.4219 13.5V1.39062H20.6719V13.5H19.4219ZM22.4766 12.2969L23.5234 11.5938C23.7214 11.974 23.9714 12.2604 24.2734 12.4531C24.5755 12.6406 24.9323 12.7344 25.3438 12.7344C25.7448 12.7344 26.0677 12.6354 26.3125 12.4375C26.5625 12.2396 26.6875 11.9792 26.6875 11.6562C26.6875 11.4062 26.6016 11.1979 26.4297 11.0312C26.263 10.8646 25.974 10.7109 25.5625 10.5703C25.5208 10.5547 25.4531 10.5312 25.3594 10.5C23.6198 9.90104 22.75 9.15104 22.75 8.25C22.75 7.61458 22.9844 7.09635 23.4531 6.69531C23.9219 6.29427 24.5312 6.09375 25.2812 6.09375C25.901 6.09375 26.4323 6.21875 26.875 6.46875C27.3177 6.71354 27.6354 7.0625 27.8281 7.51562L26.8359 8.125C26.6901 7.79688 26.474 7.54427 26.1875 7.36719C25.9062 7.1901 25.5781 7.10156 25.2031 7.10156C24.8438 7.10156 24.5495 7.20312 24.3203 7.40625C24.0964 7.60417 23.9844 7.85938 23.9844 8.17188C23.9844 8.60938 24.4583 8.97656 25.4062 9.27344C25.5833 9.33073 25.724 9.375 25.8281 9.40625C26.6042 9.65625 27.1432 9.94271 27.4453 10.2656C27.7526 10.5833 27.9062 11.0052 27.9062 11.5312C27.9062 12.2083 27.6641 12.7578 27.1797 13.1797C26.7005 13.5964 26.0729 13.8047 25.2969 13.8047C24.6302 13.8047 24.0625 13.6797 23.5938 13.4297C23.1302 13.1797 22.7578 12.8021 22.4766 12.2969ZM35.2188 9.99219C35.2188 9.1849 34.9974 8.53646 34.5547 8.04688C34.1172 7.55208 33.5443 7.30469 32.8359 7.30469C32.1016 7.30469 31.5286 7.53125 31.1172 7.98438C30.7057 8.4375 30.5 9.07031 30.5 9.88281C30.5 10.7474 30.7057 11.4141 31.1172 11.8828C31.5339 12.3516 32.1224 12.5859 32.8828 12.5859C33.612 12.5859 34.1823 12.3594 34.5938 11.9062C35.0104 11.4479 35.2188 10.8099 35.2188 9.99219ZM36.4062 6.35156V13.5H35.2188V12.2031C34.9323 12.724 34.5651 13.1224 34.1172 13.3984C33.6745 13.6693 33.1771 13.8047 32.625 13.8047C31.599 13.8047 30.7708 13.4531 30.1406 12.75C29.5156 12.0417 29.2031 11.1068 29.2031 9.94531C29.2031 8.76823 29.5078 7.83333 30.1172 7.14062C30.7266 6.44271 31.5417 6.09375 32.5625 6.09375C33.1615 6.09375 33.6797 6.22917 34.1172 6.5C34.5599 6.76562 34.9167 7.16406 35.1875 7.69531V6.35156H36.4062ZM49.0469 9.96094C49.0469 9.16406 48.8255 8.52344 48.3828 8.03906C47.9401 7.54948 47.3568 7.30469 46.6328 7.30469C45.9089 7.30469 45.3438 7.52604 44.9375 7.96875C44.5312 8.41146 44.3281 9.02344 44.3281 9.80469C44.3281 10.6849 44.5339 11.375 44.9453 11.875C45.3568 12.3698 45.9245 12.6172 46.6484 12.6172C47.3984 12.6172 47.9844 12.3828 48.4062 11.9141C48.8333 11.4453 49.0469 10.7943 49.0469 9.96094ZM50.2344 1.39062V13.5H49.0469V12.2031C48.7656 12.7188 48.401 13.1146 47.9531 13.3906C47.5052 13.6667 47.0052 13.8047 46.4531 13.8047C45.4271 13.8047 44.599 13.4531 43.9688 12.75C43.3438 12.0417 43.0312 11.1068 43.0312 9.94531C43.0312 8.77344 43.3385 7.83854 43.9531 7.14062C44.5677 6.44271 45.3854 6.09375 46.4062 6.09375C47 6.09375 47.5156 6.22917 47.9531 6.5C48.3906 6.76562 48.7448 7.16406 49.0156 7.69531V1.39062H50.2344ZM57.8047 9.11719C57.763 8.48698 57.5521 8.0026 57.1719 7.66406C56.7969 7.32031 56.2812 7.14844 55.625 7.14844C55.0312 7.14844 54.5365 7.32812 54.1406 7.6875C53.7448 8.04167 53.5156 8.51823 53.4531 9.11719H57.8047ZM59.1172 10.1094H53.4531V10.2188C53.4531 10.9844 53.6719 11.6042 54.1094 12.0781C54.5469 12.5469 55.1172 12.7812 55.8203 12.7812C56.2995 12.7812 56.7318 12.6536 57.1172 12.3984C57.5026 12.138 57.8438 11.7474 58.1406 11.2266L59.0703 11.8516C58.7109 12.4974 58.2526 12.9844 57.6953 13.3125C57.138 13.6406 56.4922 13.8047 55.7578 13.8047C54.6693 13.8047 53.7891 13.4453 53.1172 12.7266C52.4453 12.0078 52.1094 11.0651 52.1094 9.89844C52.1094 8.77865 52.4427 7.86198 53.1094 7.14844C53.776 6.4349 54.6328 6.07812 55.6797 6.07812C56.737 6.07812 57.5729 6.41667 58.1875 7.09375C58.8073 7.77083 59.1172 8.69531 59.1172 9.86719V10.1094ZM1.4375 20.3594H0.125V19.3516H1.4375V16.4688H2.6875V19.3516H4V20.3594H2.6875V26.5H1.4375V20.3594ZM5.40625 26.5V19.3516H6.49219V20.8359C6.82031 20.2161 7.16927 19.7734 7.53906 19.5078C7.90885 19.2422 8.35938 19.1094 8.89062 19.1094C9.03646 19.1094 9.17708 19.1224 9.3125 19.1484C9.44792 19.1693 9.58333 19.2031 9.71875 19.25L9.3125 20.3516C9.17188 20.3047 9.03906 20.2708 8.91406 20.25C8.78906 20.224 8.66927 20.2109 8.55469 20.2109C7.90885 20.2109 7.42448 20.4453 7.10156 20.9141C6.77865 21.3776 6.61719 22.0781 6.61719 23.0156V26.5H5.40625ZM16.4844 22.9922C16.4844 22.1849 16.263 21.5365 15.8203 21.0469C15.3828 20.5521 14.8099 20.3047 14.1016 20.3047C13.3672 20.3047 12.7943 20.5312 12.3828 20.9844C11.9714 21.4375 11.7656 22.0703 11.7656 22.8828C11.7656 23.7474 11.9714 24.4141 12.3828 24.8828C12.7995 25.3516 13.388 25.5859 14.1484 25.5859C14.8776 25.5859 15.4479 25.3594 15.8594 24.9062C16.276 24.4479 16.4844 23.8099 16.4844 22.9922ZM17.6719 19.3516V26.5H16.4844V25.2031C16.1979 25.724 15.8307 26.1224 15.3828 26.3984C14.9401 26.6693 14.4427 26.8047 13.8906 26.8047C12.8646 26.8047 12.0365 26.4531 11.4062 25.75C10.7812 25.0417 10.4688 24.1068 10.4688 22.9453C10.4688 21.7682 10.7734 20.8333 11.3828 20.1406C11.9922 19.4427 12.8073 19.0938 13.8281 19.0938C14.4271 19.0938 14.9453 19.2292 15.3828 19.5C15.8255 19.7656 16.1823 20.1641 16.4531 20.6953V19.3516H17.6719ZM21.2891 22.9609C21.2891 23.7943 21.5026 24.4453 21.9297 24.9141C22.3568 25.3828 22.9427 25.6172 23.6875 25.6172C24.4167 25.6172 24.987 25.3698 25.3984 24.875C25.8151 24.375 26.0234 23.6849 26.0234 22.8047C26.0234 22.0234 25.8203 21.4115 25.4141 20.9688C25.0078 20.526 24.4453 20.3047 23.7266 20.3047C22.9974 20.3047 22.4089 20.5495 21.9609 21.0391C21.513 21.5234 21.2891 22.1641 21.2891 22.9609ZM20.125 14.3906H21.3359V20.6953C21.612 20.1641 21.9688 19.7656 22.4062 19.5C22.8438 19.2292 23.3568 19.0938 23.9453 19.0938C24.9714 19.0938 25.7891 19.4427 26.3984 20.1406C27.013 20.8385 27.3203 21.7734 27.3203 22.9453C27.3203 24.1068 27.0078 25.0417 26.3828 25.75C25.7578 26.4531 24.9297 26.8047 23.8984 26.8047C23.3464 26.8047 22.8438 26.6667 22.3906 26.3906C21.9375 26.1094 21.5703 25.7135 21.2891 25.2031V26.5H20.125V14.3906ZM34.75 22.9922C34.75 22.1849 34.5286 21.5365 34.0859 21.0469C33.6484 20.5521 33.0755 20.3047 32.3672 20.3047C31.6328 20.3047 31.0599 20.5312 30.6484 20.9844C30.237 21.4375 30.0312 22.0703 30.0312 22.8828C30.0312 23.7474 30.237 24.4141 30.6484 24.8828C31.0651 25.3516 31.6536 25.5859 32.4141 25.5859C33.1432 25.5859 33.7135 25.3594 34.125 24.9062C34.5417 24.4479 34.75 23.8099 34.75 22.9922ZM35.9375 19.3516V26.5H34.75V25.2031C34.4635 25.724 34.0964 26.1224 33.6484 26.3984C33.2057 26.6693 32.7083 26.8047 32.1562 26.8047C31.1302 26.8047 30.3021 26.4531 29.6719 25.75C29.0469 25.0417 28.7344 24.1068 28.7344 22.9453C28.7344 21.7682 29.0391 20.8333 29.6484 20.1406C30.2578 19.4427 31.0729 19.0938 32.0938 19.0938C32.6927 19.0938 33.2109 19.2292 33.6484 19.5C34.0911 19.7656 34.4479 20.1641 34.7188 20.6953V19.3516H35.9375ZM38.1641 15.9062C38.1641 15.6615 38.25 15.4531 38.4219 15.2812C38.599 15.1042 38.8125 15.0156 39.0625 15.0156C39.3073 15.0156 39.5156 15.1042 39.6875 15.2812C39.8646 15.4583 39.9531 15.6719 39.9531 15.9219C39.9531 16.1667 39.8672 16.375 39.6953 16.5469C39.5234 16.7188 39.3125 16.8047 39.0625 16.8047C38.8125 16.8047 38.599 16.7188 38.4219 16.5469C38.25 16.375 38.1641 16.1615 38.1641 15.9062ZM38.4531 29.9844V19.3516H39.6875V29.9844H38.4531ZM42.9844 22.9453C42.9844 23.7005 43.237 24.3411 43.7422 24.8672C44.2474 25.388 44.8594 25.6484 45.5781 25.6484C46.2917 25.6484 46.8984 25.388 47.3984 24.8672C47.8984 24.3411 48.1484 23.7005 48.1484 22.9453C48.1484 22.1901 47.8984 21.5521 47.3984 21.0312C46.8984 20.5052 46.2917 20.2422 45.5781 20.2422C44.8542 20.2422 44.2396 20.5052 43.7344 21.0312C43.2344 21.5521 42.9844 22.1901 42.9844 22.9453ZM41.6875 22.9453C41.6875 22.4193 41.7839 21.9245 41.9766 21.4609C42.1693 20.9922 42.4505 20.5755 42.8203 20.2109C43.1901 19.8464 43.6094 19.5703 44.0781 19.3828C44.5469 19.1901 45.0469 19.0938 45.5781 19.0938C46.099 19.0938 46.5911 19.1901 47.0547 19.3828C47.5234 19.5755 47.9479 19.8568 48.3281 20.2266C48.6979 20.5859 48.9792 21 49.1719 21.4688C49.3646 21.9323 49.4609 22.4245 49.4609 22.9453C49.4609 23.4661 49.3646 23.9583 49.1719 24.4219C48.9792 24.8802 48.6979 25.2891 48.3281 25.6484C47.9479 26.0234 47.5208 26.3099 47.0469 26.5078C46.5781 26.7057 46.0885 26.8047 45.5781 26.8047C45.0521 26.8047 44.5521 26.7057 44.0781 26.5078C43.6094 26.3151 43.1901 26.0365 42.8203 25.6719C42.4505 25.2969 42.1693 24.8802 41.9766 24.4219C41.7839 23.9635 41.6875 23.4714 41.6875 22.9453Z" fill="#FAFAFA"/>
<path d="M83.6758 5.84375V16.5195C83.6758 18.8477 83.0625 20.5859 81.8359 21.7344C80.6094 22.8828 78.7617 23.457 76.293 23.457C73.7852 23.457 71.918 22.8828 70.6914 21.7344C69.4648 20.5859 68.8516 18.8477 68.8516 16.5195V5.84375H72.4961V15.9453C72.4961 17.3594 72.8086 18.4258 73.4336 19.1445C74.0586 19.8555 74.9922 20.2109 76.2344 20.2109C77.4844 20.2109 78.4297 19.8516 79.0703 19.1328C79.7109 18.4141 80.0312 17.3516 80.0312 15.9453V5.84375H83.6758ZM95.9453 16.4727L94.0234 10.9297C93.9688 10.7656 93.8984 10.4844 93.8125 10.0859C93.7266 9.6875 93.6367 9.19922 93.543 8.62109C93.4414 9.17578 93.3438 9.67578 93.25 10.1211C93.1562 10.5586 93.0859 10.8516 93.0391 11L91.1875 16.4727H95.9453ZM85.0234 23L91.5508 5.84375H95.7461L102.367 23H98.1953L96.8008 19.3555H90.1562L88.9609 23H85.0234ZM114.625 17.1875L115.891 18.6758C116.422 18.1289 116.828 17.4883 117.109 16.7539C117.398 16.0117 117.543 15.2461 117.543 14.457C117.543 12.832 117.031 11.4648 116.008 10.3555C114.984 9.24609 113.707 8.69141 112.176 8.69141C110.621 8.69141 109.332 9.24609 108.309 10.3555C107.285 11.457 106.773 12.8242 106.773 14.457C106.773 16.1055 107.273 17.4727 108.273 18.5586C109.281 19.6445 110.559 20.1875 112.105 20.1875C112.238 20.1875 112.422 20.1758 112.656 20.1523C112.898 20.1211 113.184 20.0781 113.512 20.0234L111.039 17.1875H114.625ZM121.223 24.9922H117.566L115.703 22.7891C114.859 23.0078 114.156 23.1641 113.594 23.2578C113.039 23.3594 112.543 23.4102 112.105 23.4102C110.926 23.4102 109.77 23.1797 108.637 22.7188C107.504 22.2578 106.516 21.6172 105.672 20.7969C104.805 19.9531 104.137 18.9844 103.668 17.8906C103.207 16.7891 102.977 15.6367 102.977 14.4336C102.977 13.2305 103.207 12.0859 103.668 11C104.129 9.90625 104.797 8.92969 105.672 8.07031C106.523 7.22656 107.508 6.58203 108.625 6.13672C109.75 5.68359 110.934 5.45703 112.176 5.45703C113.395 5.45703 114.562 5.68359 115.68 6.13672C116.797 6.58203 117.789 7.22656 118.656 8.07031C119.523 8.92188 120.188 9.89062 120.648 10.9766C121.109 12.0625 121.34 13.2148 121.34 14.4336C121.34 15.7773 121.062 17.0312 120.508 18.1953C119.953 19.3594 119.141 20.3945 118.07 21.3008L121.223 24.9922Z" fill="#FAFAFA"/>
</svg>
