<svg width="34" height="35" viewBox="0 0 34 35" fill="none" xmlns="http://www.w3.org/2000/svg">
<path d="M17 0.900391C7.83337 0.900391 0.333374 8.38372 0.333374 17.6004C0.333374 25.9337 6.43337 32.8504 14.4 34.1004V22.4337H10.1667V17.6004H14.4V13.9171C14.4 9.73372 16.8834 7.43372 20.7 7.43372C22.5167 7.43372 24.4167 7.75039 24.4167 7.75039V11.8671H22.3167C20.25 11.8671 19.6 13.1504 19.6 14.4671V17.6004H24.2334L23.4834 22.4337H19.6V34.1004C23.5274 33.4801 27.1037 31.4762 29.6833 28.4505C32.2628 25.4247 33.6756 21.5765 33.6667 17.6004C33.6667 8.38372 26.1667 0.900391 17 0.900391Z" fill="#828282"/>
</svg>
