<svg width="48" height="48" viewBox="0 0 48 48" fill="none" xmlns="http://www.w3.org/2000/svg">
<path d="M14 36V31M14 31V28C14 27.058 14 26.586 14.308 26.292C14.616 26 15.11 26 16.1 26H17.5C18.95 26 20.126 27.12 20.126 28.5C20.126 29.88 18.95 31 17.5 31H14ZM42 26H39.376C37.726 26 36.9 26 36.388 26.488C35.876 26.976 35.876 27.762 35.876 29.334V31M35.876 31V36M35.876 31H40.25M31.5 31C31.5 33.76 29.15 36 26.25 36C25.596 36 25.27 36 25.024 35.866C24.442 35.546 24.5 34.896 24.5 34.334V27.666C24.5 27.104 24.44 26.454 25.024 26.134C25.268 26 25.596 26 26.25 26C29.15 26 31.5 28.24 31.5 31Z" stroke="#27272A" stroke-width="3" stroke-linecap="round" stroke-linejoin="round"/>
<path d="M30 44H21.454C14.934 44 11.67 44 9.406 42.404C8.7617 41.9522 8.18579 41.4099 7.696 40.794C6 38.662 6 35.594 6 29.454V24.364C6 18.438 6 15.474 6.938 13.108C8.446 9.302 11.634 6.302 15.678 4.882C18.19 4 21.336 4 27.636 4C31.232 4 33.032 4 34.468 4.504C36.778 5.316 38.6 7.03 39.462 9.204C40 10.556 40 12.25 40 15.636V20" stroke="#27272A" stroke-width="3" stroke-linecap="round" stroke-linejoin="round"/>
<path d="M6 24C6 22.2321 6.70231 20.5365 7.95243 19.2864C9.20254 18.0363 10.8981 17.334 12.666 17.334C13.998 17.334 15.568 17.566 16.862 17.22C17.4274 17.0678 17.9429 16.7697 18.3568 16.3555C18.7706 15.9413 19.0683 15.4255 19.22 14.86C19.566 13.566 19.334 11.996 19.334 10.664C19.3345 8.89641 20.0371 7.2014 21.2871 5.95172C22.5372 4.70203 24.2324 4 26 4" stroke="#27272A" stroke-width="3" stroke-linecap="round" stroke-linejoin="round"/>
</svg>
