<svg width="34" height="35" viewBox="0 0 34 35" fill="none" xmlns="http://www.w3.org/2000/svg">
<path d="M10.0007 0.833496H24.0007C29.334 0.833496 33.6673 5.16683 33.6673 10.5002V24.5002C33.6673 27.0639 32.6489 29.5227 30.836 31.3355C29.0232 33.1484 26.5644 34.1668 24.0007 34.1668H10.0007C4.66732 34.1668 0.333984 29.8335 0.333984 24.5002V10.5002C0.333984 7.9364 1.35243 5.47765 3.16529 3.6648C4.97814 1.85195 7.43689 0.833496 10.0007 0.833496ZM9.66732 4.16683C8.07602 4.16683 6.5499 4.79897 5.42468 5.92419C4.29946 7.04941 3.66732 8.57553 3.66732 10.1668V24.8335C3.66732 28.1502 6.35065 30.8335 9.66732 30.8335H24.334C25.9253 30.8335 27.4514 30.2014 28.5766 29.0761C29.7018 27.9509 30.334 26.4248 30.334 24.8335V10.1668C30.334 6.85016 27.6507 4.16683 24.334 4.16683H9.66732ZM25.7507 6.66683C26.3032 6.66683 26.8331 6.88632 27.2238 7.27702C27.6145 7.66772 27.834 8.19763 27.834 8.75016C27.834 9.3027 27.6145 9.8326 27.2238 10.2233C26.8331 10.614 26.3032 10.8335 25.7507 10.8335C25.1981 10.8335 24.6682 10.614 24.2775 10.2233C23.8868 9.8326 23.6673 9.3027 23.6673 8.75016C23.6673 8.19763 23.8868 7.66772 24.2775 7.27702C24.6682 6.88632 25.1981 6.66683 25.7507 6.66683ZM17.0007 9.16683C19.2108 9.16683 21.3304 10.0448 22.8932 11.6076C24.456 13.1704 25.334 15.29 25.334 17.5002C25.334 19.7103 24.456 21.8299 22.8932 23.3927C21.3304 24.9555 19.2108 25.8335 17.0007 25.8335C14.7905 25.8335 12.6709 24.9555 11.1081 23.3927C9.54529 21.8299 8.66732 19.7103 8.66732 17.5002C8.66732 15.29 9.54529 13.1704 11.1081 11.6076C12.6709 10.0448 14.7905 9.16683 17.0007 9.16683ZM17.0007 12.5002C15.6746 12.5002 14.4028 13.0269 13.4651 13.9646C12.5274 14.9023 12.0007 16.1741 12.0007 17.5002C12.0007 18.8262 12.5274 20.098 13.4651 21.0357C14.4028 21.9734 15.6746 22.5002 17.0007 22.5002C18.3267 22.5002 19.5985 21.9734 20.5362 21.0357C21.4739 20.098 22.0007 18.8262 22.0007 17.5002C22.0007 16.1741 21.4739 14.9023 20.5362 13.9646C19.5985 13.0269 18.3267 12.5002 17.0007 12.5002Z" fill="#828282"/>
</svg>
