<svg width="96" height="96" viewBox="0 0 96 96" fill="none" xmlns="http://www.w3.org/2000/svg">
<path d="M50 8H51.092C64.132 8 70.66 8 75.188 11.192C76.484 12.104 77.636 13.192 78.608 14.412C82 18.676 82 24.812 82 37.092V47.272C82 59.124 82 65.052 80.124 69.784C77.108 77.396 70.732 83.396 62.644 86.236C57.616 88 51.324 88 38.724 88C31.532 88 27.932 88 25.06 86.992C20.44 85.368 16.796 81.94 15.072 77.592C14 74.888 14 71.5 14 64.728V48" stroke="#A1A1AA" stroke-width="6" stroke-linecap="round" stroke-linejoin="round"/>
<path d="M82 48C82 51.5359 80.5954 54.9269 78.0951 57.4271C75.5949 59.9274 72.2039 61.332 68.668 61.332C66.004 61.332 62.864 60.868 60.276 61.56C59.1456 61.864 58.115 62.4597 57.2873 63.2873C56.4597 64.115 55.864 65.1456 55.56 66.276C54.868 68.864 55.332 72.004 55.332 74.668C55.332 76.4188 54.9872 78.1524 54.3172 79.7699C53.6472 81.3874 52.6651 82.8572 51.4271 84.0951C50.1892 85.3331 48.7194 86.3152 47.1019 86.9852C45.4844 87.6552 43.7508 88 42 88M18 18C19.968 15.976 25.2 8 28 8M28 8C30.8 8 36.032 15.976 38 18M28 8V40" stroke="#A1A1AA" stroke-width="6" stroke-linecap="round" stroke-linejoin="round"/>
</svg>
