<svg width="34" height="25" viewBox="0 0 34 25" fill="none" xmlns="http://www.w3.org/2000/svg">
<path d="M13.6673 17.5002L22.3173 12.5002L13.6673 7.50016V17.5002ZM32.934 4.45016C33.1507 5.2335 33.3007 6.2835 33.4007 7.61683C33.5173 8.95016 33.5673 10.1002 33.5673 11.1002L33.6673 12.5002C33.6673 16.1502 33.4007 18.8335 32.934 20.5502C32.5173 22.0502 31.5506 23.0168 30.0506 23.4335C29.2673 23.6502 27.834 23.8002 25.634 23.9002C23.4673 24.0168 21.484 24.0668 19.6507 24.0668L17.0007 24.1668C10.0173 24.1668 5.66732 23.9002 3.95065 23.4335C2.45065 23.0168 1.48398 22.0502 1.06732 20.5502C0.850651 19.7668 0.700651 18.7168 0.600651 17.3835C0.483985 16.0502 0.433984 14.9002 0.433984 13.9002L0.333984 12.5002C0.333984 8.85016 0.600651 6.16683 1.06732 4.45016C1.48398 2.95016 2.45065 1.9835 3.95065 1.56683C4.73398 1.35016 6.16732 1.20016 8.36732 1.10016C10.534 0.983496 12.5173 0.933496 14.3507 0.933496L17.0007 0.833496C23.984 0.833496 28.334 1.10016 30.0506 1.56683C31.5506 1.9835 32.5173 2.95016 32.934 4.45016Z" fill="#828282"/>
</svg>
